<svg height="240" viewBox="0 0 274 195" width="500" xmlns="http://www.w3.org/2000/svg">
<rect fill="gray" height="100%" width="100%"/>
<g>
<line stroke="#000000" stroke-width="1" x1="35" x2="10" y1="160" y2="185"/>
<line stroke="#000000" stroke-width="1" x1="35" x2="10" y1="135" y2="185"/>
<line stroke="#000000" stroke-width="1" x1="35" x2="10" y1="110" y2="185"/>
<line stroke="#000000" stroke-width="1" x1="35" x2="10" y1="85" y2="185"/>
<line stroke="#0000FF" stroke-width="3" x1="10" x2="10" y1="60" y2="185"/>
<line stroke="#000000" stroke-width="1" x1="10" x2="10" y1="35" y2="60"/>
</g>
<g>
<rect fill="#000000" height="5" width="5" x="7.5" y="182.5"/>
<text font-size="large" text-anchor="start" x="75" y="185">
[0] Lower Mississippi
</text>
<ellipse cx="35" cy="160" fill="#000000" rx="4" ry="2"/>
<text font-size="large" text-anchor="start" x="75" y="160">
[1] Upper Mississippi
</text>
<rect fill="#000000" height="5" width="5" x="32.5" y="132.5"/>
<text font-size="large" text-anchor="start" x="75" y="135">
[2] Missouri
</text>
<rect fill="#000000" height="5" width="5" x="32.5" y="107.5"/>
<text font-size="large" text-anchor="start" x="75" y="110">
[3] Arkansas
</text>
<polygon fill="#FF0000" points="31,87.30933333333333 35,80.38133333333333 39,87.30933333333333"/>
<text font-size="large" text-anchor="start" x="75" y="85">
[4] Red
</text>
<rect fill="#000000" height="5" width="5" x="7.5" y="57.5"/>
<text font-size="large" text-anchor="start" x="75" y="60">
[5] Ohio
</text>
<rect fill="#000000" height="5" width="5" x="7.5" y="32.5"/>
<text font-size="large" text-anchor="start" x="75" y="35">
[6] Tenessee
</text>
</g>
</svg>