<svg height="1000" viewBox="0 0 220 1070" width="500" xmlns="http://www.w3.org/2000/svg">
<g>
<line stroke="#000000" stroke-width="1" x1="10" x2="10" y1="1035" y2="1060"/>
<line stroke="#000000" stroke-width="1" x1="10" x2="10" y1="1010" y2="1035"/>
<line stroke="#000000" stroke-width="1" x1="35" x2="10" y1="985" y2="1010"/>
<line stroke="#000000" stroke-width="1" x1="10" x2="10" y1="960" y2="1010"/>
<line stroke="#000000" stroke-width="1" x1="10" x2="10" y1="935" y2="960"/>
<line stroke="#000000" stroke-width="1" x1="35" x2="10" y1="910" y2="935"/>
<line stroke="#000000" stroke-width="1" x1="10" x2="10" y1="885" y2="935"/>
<line stroke="#000000" stroke-width="1" x1="10" x2="10" y1="860" y2="885"/>
<line stroke="#000000" stroke-width="1" x1="35" x2="10" y1="835" y2="860"/>
<line stroke="#000000" stroke-width="1" x1="10" x2="10" y1="810" y2="860"/>
<line stroke="#000000" stroke-width="1" x1="35" x2="10" y1="785" y2="810"/>
<line stroke="#000000" stroke-width="1" x1="10" x2="10" y1="760" y2="810"/>
<line stroke="#000000" stroke-width="1" x1="35" x2="10" y1="735" y2="760"/>
<line stroke="#000000" stroke-width="1" x1="35" x2="10" y1="710" y2="760"/>
<line stroke="#000000" stroke-width="1" x1="35" x2="10" y1="685" y2="760"/>
<line stroke="#000000" stroke-width="1" x1="35" x2="10" y1="660" y2="760"/>
<line stroke="#000000" stroke-width="1" x1="35" x2="10" y1="635" y2="760"/>
<line stroke="#000000" stroke-width="1" x1="10" x2="10" y1="610" y2="760"/>
<line stroke="#000000" stroke-width="1" x1="35" x2="10" y1="585" y2="610"/>
<line stroke="#000000" stroke-width="1" x1="10" x2="10" y1="560" y2="610"/>
<line stroke="#000000" stroke-width="1" x1="35" x2="10" y1="535" y2="560"/>
<line stroke="#000000" stroke-width="1" x1="10" x2="10" y1="510" y2="560"/>
<line stroke="#000000" stroke-width="1" x1="35" x2="10" y1="485" y2="510"/>
<line stroke="#000000" stroke-width="1" x1="10" x2="10" y1="460" y2="510"/>
<line stroke="#000000" stroke-width="1" x1="35" x2="10" y1="435" y2="460"/>
<line stroke="#000000" stroke-width="1" x1="10" x2="10" y1="410" y2="460"/>
<line stroke="#000000" stroke-width="1" x1="10" x2="10" y1="385" y2="410"/>
<line stroke="#000000" stroke-width="1" x1="35" x2="10" y1="360" y2="385"/>
<line stroke="#000000" stroke-width="1" x1="35" x2="10" y1="335" y2="385"/>
<line stroke="#000000" stroke-width="1" x1="35" x2="10" y1="310" y2="385"/>
<line stroke="#000000" stroke-width="1" x1="10" x2="10" y1="285" y2="385"/>
<line stroke="#000000" stroke-width="1" x1="10" x2="10" y1="260" y2="285"/>
<line stroke="#000000" stroke-width="1" x1="10" x2="10" y1="235" y2="260"/>
<line stroke="#000000" stroke-width="1" x1="10" x2="10" y1="210" y2="235"/>
<line stroke="#000000" stroke-width="1" x1="10" x2="10" y1="185" y2="210"/>
<line stroke="#000000" stroke-width="1" x1="35" x2="10" y1="160" y2="185"/>
<line stroke="#000000" stroke-width="1" x1="10" x2="10" y1="135" y2="185"/>
<line stroke="#000000" stroke-width="1" x1="10" x2="10" y1="110" y2="135"/>
<line stroke="#000000" stroke-width="1" x1="10" x2="10" y1="85" y2="110"/>
<line stroke="#000000" stroke-width="1" x1="35" x2="10" y1="60" y2="110"/>
<line stroke="#000000" stroke-width="1" x1="35" x2="10" y1="35" y2="110"/>
</g>
<g>
<rect fill="#000000" height="5" width="5" x="7.5" y="1057.5"/>
<text font-size="large" text-anchor="start" x="75" y="1060">
smithland
</text>
<rect fill="#000000" height="5" width="5" x="7.5" y="1032.5"/>
<text font-size="large" text-anchor="start" x="75" y="1035">
golconda
</text>
<rect fill="#000000" height="5" width="5" x="7.5" y="1007.5"/>
<text font-size="large" text-anchor="start" x="75" y="1010">
old-shawneetown
</text>
<rect fill="#000000" height="5" width="5" x="32.5" y="982.5"/>
<text font-size="large" text-anchor="start" x="75" y="985">
mountcarmel
</text>
<rect fill="#000000" height="5" width="5" x="7.5" y="957.5"/>
<text font-size="large" text-anchor="start" x="75" y="960">
jt-myers
</text>
<rect fill="#000000" height="5" width="5" x="7.5" y="932.5"/>
<text font-size="large" text-anchor="start" x="75" y="935">
evansville
</text>
<rect fill="#000000" height="5" width="5" x="32.5" y="907.5"/>
<text font-size="large" text-anchor="start" x="75" y="910">
calhoun
</text>
<rect fill="#000000" height="5" width="5" x="7.5" y="882.5"/>
<text font-size="large" text-anchor="start" x="75" y="885">
newburgh
</text>
<rect fill="#000000" height="5" width="5" x="7.5" y="857.5"/>
<text font-size="large" text-anchor="start" x="75" y="860">
cannelton
</text>
<rect fill="#000000" height="5" width="5" x="32.5" y="832.5"/>
<text font-size="large" text-anchor="start" x="75" y="835">
shepherdsville
</text>
<rect fill="#000000" height="5" width="5" x="7.5" y="807.5"/>
<text font-size="large" text-anchor="start" x="75" y="810">
mcalpine
</text>
<rect fill="#000000" height="5" width="5" x="32.5" y="782.5"/>
<text font-size="large" text-anchor="start" x="75" y="785">
lockport
</text>
<rect fill="#000000" height="5" width="5" x="7.5" y="757.5"/>
<text font-size="large" text-anchor="start" x="75" y="760">
markland
</text>
<rect fill="#000000" height="5" width="5" x="32.5" y="732.5"/>
<text font-size="large" text-anchor="start" x="75" y="735">
milford
</text>
<rect fill="#000000" height="5" width="5" x="32.5" y="707.5"/>
<text font-size="large" text-anchor="start" x="75" y="710">
catawba
</text>
<rect fill="#000000" height="5" width="5" x="32.5" y="682.5"/>
<text font-size="large" text-anchor="start" x="75" y="685">
hamilton
</text>
<rect fill="#000000" height="5" width="5" x="32.5" y="657.5"/>
<text font-size="large" text-anchor="start" x="75" y="660">
perintown
</text>
<rect fill="#000000" height="5" width="5" x="32.5" y="632.5"/>
<text font-size="large" text-anchor="start" x="75" y="635">
brookville
</text>
<rect fill="#000000" height="5" width="5" x="7.5" y="607.5"/>
<text font-size="large" text-anchor="start" x="75" y="610">
meldahl
</text>
<rect fill="#000000" height="5" width="5" x="32.5" y="582.5"/>
<text font-size="large" text-anchor="start" x="75" y="585">
higby
</text>
<rect fill="#000000" height="5" width="5" x="7.5" y="557.5"/>
<text font-size="large" text-anchor="start" x="75" y="560">
greenup
</text>
<rect fill="#000000" height="5" width="5" x="32.5" y="532.5"/>
<text font-size="large" text-anchor="start" x="75" y="535">
grayson
</text>
<rect fill="#000000" height="5" width="5" x="7.5" y="507.5"/>
<text font-size="large" text-anchor="start" x="75" y="510">
ashland
</text>
<rect fill="#000000" height="5" width="5" x="32.5" y="482.5"/>
<text font-size="large" text-anchor="start" x="75" y="485">
branchland
</text>
<rect fill="#000000" height="5" width="5" x="7.5" y="457.5"/>
<text font-size="large" text-anchor="start" x="75" y="460">
rc-byrd
</text>
<rect fill="#000000" height="5" width="5" x="32.5" y="432.5"/>
<text font-size="large" text-anchor="start" x="75" y="435">
charleston
</text>
<rect fill="#000000" height="5" width="5" x="7.5" y="407.5"/>
<text font-size="large" text-anchor="start" x="75" y="410">
racine
</text>
<rect fill="#000000" height="5" width="5" x="7.5" y="382.5"/>
<text font-size="large" text-anchor="start" x="75" y="385">
belleville
</text>
<rect fill="#000000" height="5" width="5" x="32.5" y="357.5"/>
<text font-size="large" text-anchor="start" x="75" y="360">
mcconnelsville
</text>
<rect fill="#000000" height="5" width="5" x="32.5" y="332.5"/>
<text font-size="large" text-anchor="start" x="75" y="335">
athens
</text>
<rect fill="#000000" height="5" width="5" x="32.5" y="307.5"/>
<text font-size="large" text-anchor="start" x="75" y="310">
elizabeth
</text>
<rect fill="#000000" height="5" width="5" x="7.5" y="282.5"/>
<text font-size="large" text-anchor="start" x="75" y="285">
willow-island
</text>
<rect fill="#000000" height="5" width="5" x="7.5" y="257.5"/>
<text font-size="large" text-anchor="start" x="75" y="260">
hannibal
</text>
<rect fill="#000000" height="5" width="5" x="7.5" y="232.5"/>
<text font-size="large" text-anchor="start" x="75" y="235">
pike-island
</text>
<rect fill="#000000" height="5" width="5" x="7.5" y="207.5"/>
<text font-size="large" text-anchor="start" x="75" y="210">
new-cumberland
</text>
<rect fill="#000000" height="5" width="5" x="7.5" y="182.5"/>
<text font-size="large" text-anchor="start" x="75" y="185">
montgomery
</text>
<rect fill="#000000" height="5" width="5" x="32.5" y="157.5"/>
<text font-size="large" text-anchor="start" x="75" y="160">
beaverfalls
</text>
<rect fill="#000000" height="5" width="5" x="7.5" y="132.5"/>
<text font-size="large" text-anchor="start" x="75" y="135">
dashields
</text>
<rect fill="#000000" height="5" width="5" x="7.5" y="107.5"/>
<text font-size="large" text-anchor="start" x="75" y="110">
emsworth
</text>
<rect fill="#000000" height="5" width="5" x="7.5" y="82.5"/>
<text font-size="large" text-anchor="start" x="75" y="85">
natrona
</text>
<rect fill="#000000" height="5" width="5" x="32.5" y="57.5"/>
<text font-size="large" text-anchor="start" x="75" y="60">
elizabeth2
</text>
<rect fill="#000000" height="5" width="5" x="32.5" y="32.5"/>
<text font-size="large" text-anchor="start" x="75" y="35">
sutersville
</text>
</g>
</svg>