<svg viewBox="0 0 200 325" xmlns="http://www.w3.org/2000/svg">
<rect fill="white" height="100%" width="100%"/>
<g>
<line stroke="#006400" stroke-width="1" x1="20" x2="10" y1="270" y2="280"/>
<line stroke="#006400" stroke-width="1" x1="20" x2="10" y1="260" y2="280"/>
<line stroke="#006400" stroke-width="1" x1="20" x2="20" y1="250" y2="260"/>
<line stroke="#006400" stroke-width="1" x1="20" x2="20" y1="240" y2="250"/>
<line stroke="#006400" stroke-width="1" x1="20" x2="10" y1="230" y2="280"/>
<line stroke="#006400" stroke-width="1" x1="20" x2="20" y1="220" y2="230"/>
<line stroke="#006400" stroke-width="1" x1="30" x2="20" y1="210" y2="220"/>
<line stroke="#006400" stroke-width="1" x1="30" x2="20" y1="200" y2="220"/>
<line stroke="#006400" stroke-width="1" x1="20" x2="20" y1="190" y2="220"/>
<line stroke="#006400" stroke-width="1" x1="20" x2="20" y1="180" y2="190"/>
<line stroke="#006400" stroke-width="1" x1="20" x2="20" y1="170" y2="180"/>
<line stroke="#006400" stroke-width="1" x1="10" x2="10" y1="160" y2="280"/>
<line stroke="#006400" stroke-width="1" x1="10" x2="10" y1="150" y2="160"/>
<line stroke="#006400" stroke-width="1" x1="10" x2="10" y1="140" y2="150"/>
<line stroke="#006400" stroke-width="1" x1="20" x2="10" y1="130" y2="140"/>
<line stroke="#006400" stroke-width="1" x1="20" x2="10" y1="120" y2="140"/>
<line stroke="#006400" stroke-width="1" x1="20" x2="10" y1="110" y2="140"/>
<line stroke="#006400" stroke-width="1" x1="20" x2="20" y1="100" y2="110"/>
<line stroke="#006400" stroke-width="1" x1="20" x2="20" y1="90" y2="100"/>
<line stroke="#006400" stroke-width="1" x1="10" x2="10" y1="80" y2="140"/>
<line stroke="#006400" stroke-width="1" x1="10" x2="10" y1="70" y2="80"/>
<line stroke="#006400" stroke-width="1" x1="20" x2="10" y1="60" y2="70"/>
<line stroke="#006400" stroke-width="1" x1="20" x2="10" y1="50" y2="70"/>
<line stroke="#006400" stroke-width="1" x1="10" x2="10" y1="40" y2="70"/>
</g>
<g>
<circle cx="10" cy="280" fill="#FFA500" r="2.5"/>
<text font-size="8" text-anchor="start" x="40" y="284">
▅▁▁▁▁▁▁▃▁▁ -&gt; ▇▄▇▅▃▇▄▅▅▅
</text>
<circle cx="20" cy="270" fill="#FFA500" r="2.5"/>
<text font-size="8" text-anchor="start" x="40" y="274">
▁▄▇▁▁▁▁▁▄▃ -&gt; ▁▂▂▁▁▁▁▁▂▂
</text>
<circle cx="20" cy="260" fill="#FFA500" r="2.5"/>
<text font-size="8" text-anchor="start" x="40" y="264">
▁▁▁▂▃▁▁▁▁▁ -&gt; ▂▁▁▁▂▁▂▁▁▁
</text>
<circle cx="20" cy="250" fill="#FFA500" r="2.5"/>
<text font-size="8" text-anchor="start" x="40" y="254">
▁▁▁▁▁▂▃▁▁▁ -&gt; ▂▁▁▁▁▁▂▁▁▁
</text>
<circle cx="20" cy="240" fill="#FFA500" r="2.5"/>
<text font-size="8" text-anchor="start" x="40" y="244">
▅▁▁▁▁▁▁▁▁▁ -&gt; ▂▁▁▁▁▁▁▁▁▁
</text>
<circle cx="20" cy="230" fill="#FFA500" r="2.5"/>
<text font-size="8" text-anchor="start" x="40" y="234">
▁▁▂▁▁▁▁▁▁▄ -&gt; ▁▂▂▄▂▃▂▂▂▃
</text>
<circle cx="20" cy="220" fill="#FFA500" r="2.5"/>
<text font-size="8" text-anchor="start" x="40" y="224">
▁▁▁▁▃▁▁▁▁▁ -&gt; ▁▂▂▄▂▃▂▂▂▂
</text>
<circle cx="30" cy="210" fill="#FFA500" r="2.5"/>
<text font-size="8" text-anchor="start" x="40" y="214">
▁▄▁▁▁▁▇▁▂▁ -&gt; ▁▂▁▁▁▁▂▁▁▁
</text>
<circle cx="30" cy="200" fill="#FFA500" r="2.5"/>
<text font-size="8" text-anchor="start" x="40" y="204">
▁▁▁▇▁▁▁▁▁▁ -&gt; ▁▁▁▃▁▁▁▁▁▁
</text>
<circle cx="20" cy="190" fill="#FFA500" r="2.5"/>
<text font-size="8" text-anchor="start" x="40" y="194">
▁▂▁▁▁▄▁▁▅▁ -&gt; ▁▁▂▂▁▃▁▂▂▂
</text>
<circle cx="20" cy="180" fill="#FFA500" r="2.5"/>
<text font-size="8" text-anchor="start" x="40" y="184">
▁▁▁▅▁▁▁▄▁▁ -&gt; ▁▁▂▂▁▃▁▂▁▂
</text>
<circle cx="20" cy="170" fill="#FFA500" r="2.5"/>
<text font-size="8" text-anchor="start" x="40" y="174">
▁▁▅▁▁▇▁▁▁▇ -&gt; ▁▁▂▁▁▃▁▁▁▂
</text>
<circle cx="10" cy="160" fill="#FFA500" r="2.5"/>
<text font-size="8" text-anchor="start" x="40" y="164">
▅▁▁▁▃▁▁▄▁▁ -&gt; ▃▂▃▂▂▃▂▃▃▂
</text>
<circle cx="10" cy="150" fill="#FFA500" r="2.5"/>
<text font-size="8" text-anchor="start" x="40" y="154">
▁▁▄▁▁▁▃▁▁▅ -&gt; ▂▂▃▂▁▃▂▂▃▂
</text>
<circle cx="10" cy="140" fill="#FFA500" r="2.5"/>
<text font-size="8" text-anchor="start" x="40" y="144">
▁▁▁▁▂▁▁▁▁▁ -&gt; ▂▂▂▂▁▃▂▂▃▁
</text>
<circle cx="20" cy="130" fill="#FFA500" r="2.5"/>
<text font-size="8" text-anchor="start" x="40" y="134">
▁▁▁▁▁▁▄▁▁▁ -&gt; ▁▁▁▁▁▁▂▁▁▁
</text>
<circle cx="20" cy="120" fill="#FFA500" r="2.5"/>
<text font-size="8" text-anchor="start" x="40" y="124">
▁▁▁▁▁▁▁▁▁▁ -&gt; ▁▁▁▁▁▁▁▁▁▁
</text>
<circle cx="20" cy="110" fill="#FFA500" r="2.5"/>
<text font-size="8" text-anchor="start" x="40" y="114">
▁▁▁▁▁▁▁▁▁▁ -&gt; ▁▁▁▁▁▁▁▁▁▁
</text>
<circle cx="20" cy="100" fill="#FFA500" r="2.5"/>
<text font-size="8" text-anchor="start" x="40" y="104">
▁▁▁▁▁▁▁▁▁▁ -&gt; ▁▁▁▁▁▁▁▁▁▁
</text>
<circle cx="20" cy="90" fill="#FFA500" r="2.5"/>
<text font-size="8" text-anchor="start" x="40" y="94">
▁▁▁▁▁▁▁▁▁▁ -&gt; ▁▁▁▁▁▁▁▁▁▁
</text>
<circle cx="10" cy="80" fill="#FFA500" r="2.5"/>
<text font-size="8" text-anchor="start" x="40" y="84">
▁▃▁▁▁▁▁▁▃▁ -&gt; ▂▂▂▂▁▃▁▂▃▁
</text>
<circle cx="10" cy="70" fill="#FFA500" r="2.5"/>
<text font-size="8" text-anchor="start" x="40" y="74">
▁▃▁▂▁▁▁▁▅▁ -&gt; ▂▂▂▂▁▃▁▂▂▁
</text>
<circle cx="20" cy="60" fill="#FFA500" r="2.5"/>
<text font-size="8" text-anchor="start" x="40" y="64">
▁▁▁▅▁▃▁▁▁▁ -&gt; ▁▁▁▂▁▂▁▁▁▁
</text>
<circle cx="20" cy="50" fill="#FFA500" r="2.5"/>
<text font-size="8" text-anchor="start" x="40" y="54">
▃▁▁▁▁▅▁▇▁▁ -&gt; ▂▁▁▁▁▂▁▂▁▁
</text>
<circle cx="10" cy="40" fill="#FFA500" r="2.5"/>
<text font-size="8" text-anchor="start" x="40" y="44">
▄▁▅▁▁▁▁▂▁▁ -&gt; ▂▁▂▁▁▁▁▁▁▁
</text>
</g>
</svg>