<?xml version="1.0" encoding="UTF-8"?>
<svg xmlns="http://www.w3.org/2000/svg" xmlns:xlink="http://www.w3.org/1999/xlink" width="76" height="526" viewBox="0 0 76 526">
<path fill="none" stroke-width="1" stroke-linecap="butt" stroke-linejoin="miter" stroke="rgb(0%, 39.215686%, 0%)" stroke-opacity="1" stroke-miterlimit="10" d="M 10 33 L 10 79 "/>
<path fill="none" stroke-width="1" stroke-linecap="butt" stroke-linejoin="miter" stroke="rgb(0%, 39.215686%, 0%)" stroke-opacity="1" stroke-miterlimit="10" d="M 6 75 L 10 79 L 6 75 "/>
<path fill-rule="nonzero" fill="rgb(100%, 64.705882%, 0%)" fill-opacity="1" d="M 12.5 26 C 12.5 27.378906 11.378906 28.5 10 28.5 C 8.621094 28.5 7.5 27.378906 7.5 26 C 7.5 24.621094 8.621094 23.5 10 23.5 C 11.378906 23.5 12.5 24.621094 12.5 26 "/>
<path fill="none" stroke-width="1" stroke-linecap="butt" stroke-linejoin="miter" stroke="rgb(0%, 39.215686%, 0%)" stroke-opacity="1" stroke-miterlimit="10" d="M 26.871094 52.261719 L 13.128906 79.738281 "/>
<path fill="none" stroke-width="1" stroke-linecap="butt" stroke-linejoin="miter" stroke="rgb(0%, 39.215686%, 0%)" stroke-opacity="1" stroke-miterlimit="10" d="M 19.878906 78.488281 L 13.128906 79.738281 L 14.382812 72.992188 "/>
<path fill-rule="nonzero" fill="rgb(100%, 64.705882%, 0%)" fill-opacity="1" d="M 32.5 46 C 32.5 47.378906 31.378906 48.5 30 48.5 C 28.621094 48.5 27.5 47.378906 27.5 46 C 27.5 44.621094 28.621094 43.5 30 43.5 C 31.378906 43.5 32.5 44.621094 32.5 46 "/>
<path fill="none" stroke-width="1" stroke-linecap="butt" stroke-linejoin="miter" stroke="rgb(0%, 39.215686%, 0%)" stroke-opacity="1" stroke-miterlimit="10" d="M 25.050781 70.949219 L 14.949219 81.050781 "/>
<path fill="none" stroke-width="1" stroke-linecap="butt" stroke-linejoin="miter" stroke="rgb(0%, 39.215686%, 0%)" stroke-opacity="1" stroke-miterlimit="10" d="M 18.988281 81.050781 L 14.949219 81.050781 L 14.949219 77.011719 "/>
<path fill-rule="nonzero" fill="rgb(100%, 64.705882%, 0%)" fill-opacity="1" d="M 32.5 66 C 32.5 67.378906 31.378906 68.5 30 68.5 C 28.621094 68.5 27.5 67.378906 27.5 66 C 27.5 64.621094 28.621094 63.5 30 63.5 C 31.378906 63.5 32.5 64.621094 32.5 66 "/>
<path fill="none" stroke-width="1" stroke-linecap="butt" stroke-linejoin="miter" stroke="rgb(0%, 39.215686%, 0%)" stroke-opacity="1" stroke-miterlimit="10" d="M 10 93 L 10 99 "/>
<path fill="none" stroke-width="1" stroke-linecap="butt" stroke-linejoin="miter" stroke="rgb(0%, 39.215686%, 0%)" stroke-opacity="1" stroke-miterlimit="10" d="M 8.800781 97.800781 L 10 99 L 8.800781 97.800781 "/>
<path fill-rule="nonzero" fill="rgb(100%, 64.705882%, 0%)" fill-opacity="1" d="M 12.5 86 C 12.5 87.378906 11.378906 88.5 10 88.5 C 8.621094 88.5 7.5 87.378906 7.5 86 C 7.5 84.621094 8.621094 83.5 10 83.5 C 11.378906 83.5 12.5 84.621094 12.5 86 "/>
<path fill="none" stroke-width="1" stroke-linecap="butt" stroke-linejoin="miter" stroke="rgb(0%, 39.215686%, 0%)" stroke-opacity="1" stroke-miterlimit="10" d="M 10 113 L 10 219 "/>
<path fill="none" stroke-width="1" stroke-linecap="butt" stroke-linejoin="miter" stroke="rgb(0%, 39.215686%, 0%)" stroke-opacity="1" stroke-miterlimit="10" d="M 6 215 L 10 219 L 6 215 "/>
<path fill-rule="nonzero" fill="rgb(100%, 64.705882%, 0%)" fill-opacity="1" d="M 12.5 106 C 12.5 107.378906 11.378906 108.5 10 108.5 C 8.621094 108.5 7.5 107.378906 7.5 106 C 7.5 104.621094 8.621094 103.5 10 103.5 C 11.378906 103.5 12.5 104.621094 12.5 106 "/>
<path fill="none" stroke-width="1" stroke-linecap="butt" stroke-linejoin="miter" stroke="rgb(0%, 39.215686%, 0%)" stroke-opacity="1" stroke-miterlimit="10" d="M 30 133 L 30 139 "/>
<path fill="none" stroke-width="1" stroke-linecap="butt" stroke-linejoin="miter" stroke="rgb(0%, 39.215686%, 0%)" stroke-opacity="1" stroke-miterlimit="10" d="M 28.800781 137.800781 L 30 139 L 28.800781 137.800781 "/>
<path fill-rule="nonzero" fill="rgb(100%, 64.705882%, 0%)" fill-opacity="1" d="M 32.5 126 C 32.5 127.378906 31.378906 128.5 30 128.5 C 28.621094 128.5 27.5 127.378906 27.5 126 C 27.5 124.621094 28.621094 123.5 30 123.5 C 31.378906 123.5 32.5 124.621094 32.5 126 "/>
<path fill="none" stroke-width="1" stroke-linecap="butt" stroke-linejoin="miter" stroke="rgb(0%, 39.215686%, 0%)" stroke-opacity="1" stroke-miterlimit="10" d="M 30 153 L 30 159 "/>
<path fill="none" stroke-width="1" stroke-linecap="butt" stroke-linejoin="miter" stroke="rgb(0%, 39.215686%, 0%)" stroke-opacity="1" stroke-miterlimit="10" d="M 28.800781 157.800781 L 30 159 L 28.800781 157.800781 "/>
<path fill-rule="nonzero" fill="rgb(100%, 64.705882%, 0%)" fill-opacity="1" d="M 32.5 146 C 32.5 147.378906 31.378906 148.5 30 148.5 C 28.621094 148.5 27.5 147.378906 27.5 146 C 27.5 144.621094 28.621094 143.5 30 143.5 C 31.378906 143.5 32.5 144.621094 32.5 146 "/>
<path fill="none" stroke-width="1" stroke-linecap="butt" stroke-linejoin="miter" stroke="rgb(0%, 39.215686%, 0%)" stroke-opacity="1" stroke-miterlimit="10" d="M 27.785156 172.640625 L 12.214844 219.359375 "/>
<path fill="none" stroke-width="1" stroke-linecap="butt" stroke-linejoin="miter" stroke="rgb(0%, 39.215686%, 0%)" stroke-opacity="1" stroke-miterlimit="10" d="M 19.328125 218.472656 L 12.214844 219.359375 L 13.097656 212.246094 "/>
<path fill-rule="nonzero" fill="rgb(100%, 64.705882%, 0%)" fill-opacity="1" d="M 32.5 166 C 32.5 167.378906 31.378906 168.5 30 168.5 C 28.621094 168.5 27.5 167.378906 27.5 166 C 27.5 164.621094 28.621094 163.5 30 163.5 C 31.378906 163.5 32.5 164.621094 32.5 166 "/>
<path fill="none" stroke-width="1" stroke-linecap="butt" stroke-linejoin="miter" stroke="rgb(0%, 39.215686%, 0%)" stroke-opacity="1" stroke-miterlimit="10" d="M 26.871094 192.261719 L 13.128906 219.738281 "/>
<path fill="none" stroke-width="1" stroke-linecap="butt" stroke-linejoin="miter" stroke="rgb(0%, 39.215686%, 0%)" stroke-opacity="1" stroke-miterlimit="10" d="M 19.878906 218.488281 L 13.128906 219.738281 L 14.382812 212.992188 "/>
<path fill-rule="nonzero" fill="rgb(100%, 64.705882%, 0%)" fill-opacity="1" d="M 32.5 186 C 32.5 187.378906 31.378906 188.5 30 188.5 C 28.621094 188.5 27.5 187.378906 27.5 186 C 27.5 184.621094 28.621094 183.5 30 183.5 C 31.378906 183.5 32.5 184.621094 32.5 186 "/>
<path fill="none" stroke-width="1" stroke-linecap="butt" stroke-linejoin="miter" stroke="rgb(0%, 39.215686%, 0%)" stroke-opacity="1" stroke-miterlimit="10" d="M 25.050781 210.949219 L 14.949219 221.050781 "/>
<path fill="none" stroke-width="1" stroke-linecap="butt" stroke-linejoin="miter" stroke="rgb(0%, 39.215686%, 0%)" stroke-opacity="1" stroke-miterlimit="10" d="M 18.988281 221.050781 L 14.949219 221.050781 L 14.949219 217.011719 "/>
<path fill-rule="nonzero" fill="rgb(100%, 64.705882%, 0%)" fill-opacity="1" d="M 32.5 206 C 32.5 207.378906 31.378906 208.5 30 208.5 C 28.621094 208.5 27.5 207.378906 27.5 206 C 27.5 204.621094 28.621094 203.5 30 203.5 C 31.378906 203.5 32.5 204.621094 32.5 206 "/>
<path fill="none" stroke-width="1" stroke-linecap="butt" stroke-linejoin="miter" stroke="rgb(0%, 39.215686%, 0%)" stroke-opacity="1" stroke-miterlimit="10" d="M 10 233 L 10 239 "/>
<path fill="none" stroke-width="1" stroke-linecap="butt" stroke-linejoin="miter" stroke="rgb(0%, 39.215686%, 0%)" stroke-opacity="1" stroke-miterlimit="10" d="M 8.800781 237.800781 L 10 239 L 8.800781 237.800781 "/>
<path fill-rule="nonzero" fill="rgb(100%, 64.705882%, 0%)" fill-opacity="1" d="M 12.5 226 C 12.5 227.378906 11.378906 228.5 10 228.5 C 8.621094 228.5 7.5 227.378906 7.5 226 C 7.5 224.621094 8.621094 223.5 10 223.5 C 11.378906 223.5 12.5 224.621094 12.5 226 "/>
<path fill="none" stroke-width="1" stroke-linecap="butt" stroke-linejoin="miter" stroke="rgb(0%, 39.215686%, 0%)" stroke-opacity="1" stroke-miterlimit="10" d="M 10 253 L 10 259 "/>
<path fill="none" stroke-width="1" stroke-linecap="butt" stroke-linejoin="miter" stroke="rgb(0%, 39.215686%, 0%)" stroke-opacity="1" stroke-miterlimit="10" d="M 8.800781 257.800781 L 10 259 L 8.800781 257.800781 "/>
<path fill-rule="nonzero" fill="rgb(100%, 64.705882%, 0%)" fill-opacity="1" d="M 12.5 246 C 12.5 247.378906 11.378906 248.5 10 248.5 C 8.621094 248.5 7.5 247.378906 7.5 246 C 7.5 244.621094 8.621094 243.5 10 243.5 C 11.378906 243.5 12.5 244.621094 12.5 246 "/>
<path fill="none" stroke-width="1" stroke-linecap="butt" stroke-linejoin="miter" stroke="rgb(0%, 39.215686%, 0%)" stroke-opacity="1" stroke-miterlimit="10" d="M 10 273 L 10 499 "/>
<path fill="none" stroke-width="1" stroke-linecap="butt" stroke-linejoin="miter" stroke="rgb(0%, 39.215686%, 0%)" stroke-opacity="1" stroke-miterlimit="10" d="M 6 495 L 10 499 L 6 495 "/>
<path fill-rule="nonzero" fill="rgb(100%, 64.705882%, 0%)" fill-opacity="1" d="M 12.5 266 C 12.5 267.378906 11.378906 268.5 10 268.5 C 8.621094 268.5 7.5 267.378906 7.5 266 C 7.5 264.621094 8.621094 263.5 10 263.5 C 11.378906 263.5 12.5 264.621094 12.5 266 "/>
<path fill="none" stroke-width="1" stroke-linecap="butt" stroke-linejoin="miter" stroke="rgb(0%, 39.215686%, 0%)" stroke-opacity="1" stroke-miterlimit="10" d="M 30 293 L 30 299 "/>
<path fill="none" stroke-width="1" stroke-linecap="butt" stroke-linejoin="miter" stroke="rgb(0%, 39.215686%, 0%)" stroke-opacity="1" stroke-miterlimit="10" d="M 28.800781 297.800781 L 30 299 L 28.800781 297.800781 "/>
<path fill-rule="nonzero" fill="rgb(100%, 64.705882%, 0%)" fill-opacity="1" d="M 32.5 286 C 32.5 287.378906 31.378906 288.5 30 288.5 C 28.621094 288.5 27.5 287.378906 27.5 286 C 27.5 284.621094 28.621094 283.5 30 283.5 C 31.378906 283.5 32.5 284.621094 32.5 286 "/>
<path fill="none" stroke-width="1" stroke-linecap="butt" stroke-linejoin="miter" stroke="rgb(0%, 39.215686%, 0%)" stroke-opacity="1" stroke-miterlimit="10" d="M 30 313 L 30 319 "/>
<path fill="none" stroke-width="1" stroke-linecap="butt" stroke-linejoin="miter" stroke="rgb(0%, 39.215686%, 0%)" stroke-opacity="1" stroke-miterlimit="10" d="M 28.800781 317.800781 L 30 319 L 28.800781 317.800781 "/>
<path fill-rule="nonzero" fill="rgb(100%, 64.705882%, 0%)" fill-opacity="1" d="M 32.5 306 C 32.5 307.378906 31.378906 308.5 30 308.5 C 28.621094 308.5 27.5 307.378906 27.5 306 C 27.5 304.621094 28.621094 303.5 30 303.5 C 31.378906 303.5 32.5 304.621094 32.5 306 "/>
<path fill="none" stroke-width="1" stroke-linecap="butt" stroke-linejoin="miter" stroke="rgb(0%, 39.215686%, 0%)" stroke-opacity="1" stroke-miterlimit="10" d="M 30 333 L 30 379 "/>
<path fill="none" stroke-width="1" stroke-linecap="butt" stroke-linejoin="miter" stroke="rgb(0%, 39.215686%, 0%)" stroke-opacity="1" stroke-miterlimit="10" d="M 26 375 L 30 379 L 26 375 "/>
<path fill-rule="nonzero" fill="rgb(100%, 64.705882%, 0%)" fill-opacity="1" d="M 32.5 326 C 32.5 327.378906 31.378906 328.5 30 328.5 C 28.621094 328.5 27.5 327.378906 27.5 326 C 27.5 324.621094 28.621094 323.5 30 323.5 C 31.378906 323.5 32.5 324.621094 32.5 326 "/>
<path fill="none" stroke-width="1" stroke-linecap="butt" stroke-linejoin="miter" stroke="rgb(0%, 39.215686%, 0%)" stroke-opacity="1" stroke-miterlimit="10" d="M 46.871094 352.261719 L 33.128906 379.738281 "/>
<path fill="none" stroke-width="1" stroke-linecap="butt" stroke-linejoin="miter" stroke="rgb(0%, 39.215686%, 0%)" stroke-opacity="1" stroke-miterlimit="10" d="M 39.878906 378.488281 L 33.128906 379.738281 L 34.382812 372.992188 "/>
<path fill-rule="nonzero" fill="rgb(100%, 64.705882%, 0%)" fill-opacity="1" d="M 52.5 346 C 52.5 347.378906 51.378906 348.5 50 348.5 C 48.621094 348.5 47.5 347.378906 47.5 346 C 47.5 344.621094 48.621094 343.5 50 343.5 C 51.378906 343.5 52.5 344.621094 52.5 346 "/>
<path fill="none" stroke-width="1" stroke-linecap="butt" stroke-linejoin="miter" stroke="rgb(0%, 39.215686%, 0%)" stroke-opacity="1" stroke-miterlimit="10" d="M 45.050781 370.949219 L 34.949219 381.050781 "/>
<path fill="none" stroke-width="1" stroke-linecap="butt" stroke-linejoin="miter" stroke="rgb(0%, 39.215686%, 0%)" stroke-opacity="1" stroke-miterlimit="10" d="M 38.988281 381.050781 L 34.949219 381.050781 L 34.949219 377.011719 "/>
<path fill-rule="nonzero" fill="rgb(100%, 64.705882%, 0%)" fill-opacity="1" d="M 52.5 366 C 52.5 367.378906 51.378906 368.5 50 368.5 C 48.621094 368.5 47.5 367.378906 47.5 366 C 47.5 364.621094 48.621094 363.5 50 363.5 C 51.378906 363.5 52.5 364.621094 52.5 366 "/>
<path fill="none" stroke-width="1" stroke-linecap="butt" stroke-linejoin="miter" stroke="rgb(0%, 39.215686%, 0%)" stroke-opacity="1" stroke-miterlimit="10" d="M 30 393 L 30 399 "/>
<path fill="none" stroke-width="1" stroke-linecap="butt" stroke-linejoin="miter" stroke="rgb(0%, 39.215686%, 0%)" stroke-opacity="1" stroke-miterlimit="10" d="M 28.800781 397.800781 L 30 399 L 28.800781 397.800781 "/>
<path fill-rule="nonzero" fill="rgb(100%, 64.705882%, 0%)" fill-opacity="1" d="M 32.5 386 C 32.5 387.378906 31.378906 388.5 30 388.5 C 28.621094 388.5 27.5 387.378906 27.5 386 C 27.5 384.621094 28.621094 383.5 30 383.5 C 31.378906 383.5 32.5 384.621094 32.5 386 "/>
<path fill="none" stroke-width="1" stroke-linecap="butt" stroke-linejoin="miter" stroke="rgb(0%, 39.215686%, 0%)" stroke-opacity="1" stroke-miterlimit="10" d="M 28.628906 412.863281 L 11.371094 499.136719 "/>
<path fill="none" stroke-width="1" stroke-linecap="butt" stroke-linejoin="miter" stroke="rgb(0%, 39.215686%, 0%)" stroke-opacity="1" stroke-miterlimit="10" d="M 18.824219 498.585938 L 11.371094 499.136719 L 11.921875 491.683594 "/>
<path fill-rule="nonzero" fill="rgb(100%, 64.705882%, 0%)" fill-opacity="1" d="M 32.5 406 C 32.5 407.378906 31.378906 408.5 30 408.5 C 28.621094 408.5 27.5 407.378906 27.5 406 C 27.5 404.621094 28.621094 403.5 30 403.5 C 31.378906 403.5 32.5 404.621094 32.5 406 "/>
<path fill="none" stroke-width="1" stroke-linecap="butt" stroke-linejoin="miter" stroke="rgb(0%, 39.215686%, 0%)" stroke-opacity="1" stroke-miterlimit="10" d="M 30 433 L 30 439 "/>
<path fill="none" stroke-width="1" stroke-linecap="butt" stroke-linejoin="miter" stroke="rgb(0%, 39.215686%, 0%)" stroke-opacity="1" stroke-miterlimit="10" d="M 28.800781 437.800781 L 30 439 L 28.800781 437.800781 "/>
<path fill-rule="nonzero" fill="rgb(100%, 64.705882%, 0%)" fill-opacity="1" d="M 32.5 426 C 32.5 427.378906 31.378906 428.5 30 428.5 C 28.621094 428.5 27.5 427.378906 27.5 426 C 27.5 424.621094 28.621094 423.5 30 423.5 C 31.378906 423.5 32.5 424.621094 32.5 426 "/>
<path fill="none" stroke-width="1" stroke-linecap="butt" stroke-linejoin="miter" stroke="rgb(0%, 39.215686%, 0%)" stroke-opacity="1" stroke-miterlimit="10" d="M 30 453 L 30 459 "/>
<path fill="none" stroke-width="1" stroke-linecap="butt" stroke-linejoin="miter" stroke="rgb(0%, 39.215686%, 0%)" stroke-opacity="1" stroke-miterlimit="10" d="M 28.800781 457.800781 L 30 459 L 28.800781 457.800781 "/>
<path fill-rule="nonzero" fill="rgb(100%, 64.705882%, 0%)" fill-opacity="1" d="M 32.5 446 C 32.5 447.378906 31.378906 448.5 30 448.5 C 28.621094 448.5 27.5 447.378906 27.5 446 C 27.5 444.621094 28.621094 443.5 30 443.5 C 31.378906 443.5 32.5 444.621094 32.5 446 "/>
<path fill="none" stroke-width="1" stroke-linecap="butt" stroke-linejoin="miter" stroke="rgb(0%, 39.215686%, 0%)" stroke-opacity="1" stroke-miterlimit="10" d="M 26.871094 472.261719 L 13.128906 499.738281 "/>
<path fill="none" stroke-width="1" stroke-linecap="butt" stroke-linejoin="miter" stroke="rgb(0%, 39.215686%, 0%)" stroke-opacity="1" stroke-miterlimit="10" d="M 19.878906 498.488281 L 13.128906 499.738281 L 14.382812 492.992188 "/>
<path fill-rule="nonzero" fill="rgb(100%, 64.705882%, 0%)" fill-opacity="1" d="M 32.5 466 C 32.5 467.378906 31.378906 468.5 30 468.5 C 28.621094 468.5 27.5 467.378906 27.5 466 C 27.5 464.621094 28.621094 463.5 30 463.5 C 31.378906 463.5 32.5 464.621094 32.5 466 "/>
<path fill="none" stroke-width="1" stroke-linecap="butt" stroke-linejoin="miter" stroke="rgb(0%, 39.215686%, 0%)" stroke-opacity="1" stroke-miterlimit="10" d="M 25.050781 490.949219 L 14.949219 501.050781 "/>
<path fill="none" stroke-width="1" stroke-linecap="butt" stroke-linejoin="miter" stroke="rgb(0%, 39.215686%, 0%)" stroke-opacity="1" stroke-miterlimit="10" d="M 18.988281 501.050781 L 14.949219 501.050781 L 14.949219 497.011719 "/>
<path fill-rule="nonzero" fill="rgb(100%, 64.705882%, 0%)" fill-opacity="1" d="M 32.5 486 C 32.5 487.378906 31.378906 488.5 30 488.5 C 28.621094 488.5 27.5 487.378906 27.5 486 C 27.5 484.621094 28.621094 483.5 30 483.5 C 31.378906 483.5 32.5 484.621094 32.5 486 "/>
<path fill-rule="nonzero" fill="rgb(100%, 64.705882%, 0%)" fill-opacity="1" d="M 76 486 L 12.5 506 C 12.5 507.378906 11.378906 508.5 10 508.5 C 8.621094 508.5 7.5 507.378906 7.5 506 C 7.5 504.621094 8.621094 503.5 10 503.5 C 11.378906 503.5 12.5 504.621094 12.5 506 "/>
</svg>
