<svg viewBox="0 0 620 240" xmlns="http://www.w3.org/2000/svg">
<defs>
<marker id="arr1" refY="1" viewBox="0 0 2 2">
<polyline fill="none" points="2,2 0,1 2,0" stroke="#0000aa" stroke-width="0.5"/>
</marker>
<marker id="arr2" refX="2" refY="1" viewBox="0 0 2 2">
<polyline fill="none" points="0,0 2,1 0,2" stroke="#0000aa" stroke-width="0.5"/>
</marker>
</defs>
<rect fill="#ffffff33" height="100%" width="100%"/>
<g transform="translate(0 10)">
<line stroke="#006400" stroke-width="1" x1="20" x2="10" y1="210" y2="220"/>
<line stroke="#006400" stroke-width="1" x1="30" x2="20" y1="200" y2="210"/>
<line stroke="#006400" stroke-width="1" x1="30" x2="20" y1="190" y2="210"/>
<line stroke="#006400" stroke-width="1" x1="30" x2="30" y1="180" y2="190"/>
<line stroke="#006400" stroke-width="1" x1="20" x2="20" y1="170" y2="210"/>
<line stroke="#006400" stroke-width="1" x1="20" x2="20" y1="160" y2="170"/>
<line stroke="#006400" stroke-width="1" x1="10" x2="10" y1="150" y2="220"/>
<line stroke="#006400" stroke-width="1" x1="20" x2="10" y1="140" y2="150"/>
<line stroke="#006400" stroke-width="1" x1="20" x2="20" y1="130" y2="140"/>
<line stroke="#006400" stroke-width="1" x1="20" x2="20" y1="120" y2="130"/>
<line stroke="#006400" stroke-width="1" x1="20" x2="20" y1="110" y2="120"/>
<line stroke="#006400" stroke-width="1" x1="10" x2="10" y1="100" y2="150"/>
<line stroke="#006400" stroke-width="1" x1="20" x2="10" y1="90" y2="100"/>
<line stroke="#006400" stroke-width="1" x1="20" x2="10" y1="80" y2="100"/>
<line stroke="#006400" stroke-width="1" x1="10" x2="10" y1="70" y2="100"/>
<line stroke="#006400" stroke-width="1" x1="10" x2="10" y1="60" y2="70"/>
<line stroke="#006400" stroke-width="1" x1="10" x2="10" y1="50" y2="60"/>
<line stroke="#006400" stroke-width="1" x1="10" x2="10" y1="40" y2="50"/>
</g>
<g transform="translate(0 10)">
<circle cx="10" cy="220" fill="#FFA500" r="2.5"/>
<text font-size="8" text-anchor="start" x="40" y="224">
03229610
</text>
<circle cx="20" cy="210" fill="#006400" r="2.5"/>
<text fill="#006400" font-size="8" stroke="#006400" stroke-width="0.5" text-anchor="start" x="40" y="214">
03229500
</text>
<circle cx="30" cy="200" fill="#FFA500" r="2.5"/>
<text font-size="8" text-anchor="start" x="40" y="204">
03228689
</text>
<circle cx="30" cy="190" fill="#006400" r="2.5"/>
<text fill="#006400" font-size="8" stroke="#006400" stroke-width="0.5" text-anchor="start" x="40" y="194">
03228500
</text>
<circle cx="30" cy="180" fill="#FFA500" r="2.5"/>
<text font-size="8" text-anchor="start" x="40" y="184">
03228300
</text>
<circle cx="20" cy="170" fill="#FFA500" r="2.5"/>
<text font-size="8" text-anchor="start" x="40" y="174">
03228805
</text>
<circle cx="20" cy="160" fill="#FFA500" r="2.5"/>
<text font-size="8" text-anchor="start" x="40" y="164">
03228750
</text>
<circle cx="10" cy="150" fill="#006400" r="2.5"/>
<text fill="#006400" font-size="8" stroke="#006400" stroke-width="0.5" text-anchor="start" x="40" y="154">
03227500
</text>
<circle cx="20" cy="140" fill="#FFA500" r="2.5"/>
<text font-size="8" text-anchor="start" x="40" y="144">
03227107
</text>
<circle cx="20" cy="130" fill="#FFA500" r="2.5"/>
<text font-size="8" text-anchor="start" x="40" y="134">
03226800
</text>
<circle cx="20" cy="120" fill="#006400" r="2.5"/>
<text fill="#006400" font-size="8" stroke="#006400" stroke-width="0.5" text-anchor="start" x="40" y="124">
03225500
</text>
<circle cx="20" cy="110" fill="#FFA500" r="2.5"/>
<text font-size="8" text-anchor="start" x="40" y="114">
03223425
</text>
<circle cx="10" cy="100" fill="#FFA500" r="2.5"/>
<text font-size="8" text-anchor="start" x="40" y="104">
03221646
</text>
<circle cx="20" cy="90" fill="#FFA500" r="2.5"/>
<text font-size="8" text-anchor="start" x="40" y="94">
03219781
</text>
<circle cx="20" cy="80" fill="#006400" r="2.5"/>
<text fill="#006400" font-size="8" stroke="#006400" stroke-width="0.5" text-anchor="start" x="40" y="84">
03220000
</text>
<circle cx="10" cy="70" fill="#006400" r="2.5"/>
<text fill="#006400" font-size="8" stroke="#006400" stroke-width="0.5" text-anchor="start" x="40" y="74">
03221000
</text>
<circle cx="10" cy="60" fill="#006400" r="2.5"/>
<text fill="#006400" font-size="8" stroke="#006400" stroke-width="0.5" text-anchor="start" x="40" y="64">
03219500
</text>
<circle cx="10" cy="50" fill="#FFA500" r="2.5"/>
<text font-size="8" text-anchor="start" x="40" y="54">
03217500
</text>
<circle cx="10" cy="40" fill="#FFA500" r="2.5"/>
<text font-size="8" text-anchor="start" x="40" y="44">
03217424
</text>
</g>
<g>
<g>
<line marker-end="url(#arr2)" marker-start="url(#arr1)" stroke="#0000aa" stroke-width="1.3" x1="497.6632176059667" x2="590" y1="230" y2="230"/>
<text font-size="6.4" text-anchor="start" x="595" y="233">
0.18
</text>
</g>
<g>
<line marker-end="url(#arr2)" marker-start="url(#arr1)" stroke="#0000aa" stroke-width="1.3" x1="94.79279373916697" x2="161.91816797100688" y1="220" y2="220"/>
<line marker-end="url(#arr2)" marker-start="url(#arr1)" stroke="#0000aa" stroke-width="1.3" x1="176.3228110720101" x2="590" y1="220" y2="220"/>
<text font-size="6.4" text-anchor="start" x="595" y="223">
0.96
</text>
</g>
<g>
<line marker-end="url(#arr2)" marker-start="url(#arr1)" stroke="#0000aa" stroke-width="1.3" x1="575.3064761804717" x2="590" y1="210" y2="210"/>
<text font-size="6.4" text-anchor="start" x="595" y="213">
0.03
</text>
</g>
<g>
<line marker-end="url(#arr2)" marker-start="url(#arr1)" stroke="#0000aa" stroke-width="1.3" x1="176.3228110720101" x2="545.0659173275908" y1="200" y2="200"/>
<line marker-end="url(#arr2)" marker-start="url(#arr1)" stroke="#0000aa" stroke-width="1.3" x1="545.0790482693419" x2="545.1315720363464" y1="200" y2="200"/>
<line marker-end="url(#arr2)" marker-start="url(#arr1)" stroke="#0000aa" stroke-width="1.3" x1="545.1447029780976" x2="590" y1="200" y2="200"/>
<text font-size="6.4" text-anchor="start" x="595" y="203">
0.83
</text>
</g>
<g>
<line marker-end="url(#arr2)" marker-start="url(#arr1)" stroke="#0000aa" stroke-width="1.3" x1="416.1332002731236" x2="589.7505121067284" y1="190" y2="190"/>
<line marker-end="url(#arr2)" marker-start="url(#arr1)" stroke="#0000aa" stroke-width="1.3" x1="589.8030358737328" x2="590" y1="190" y2="190"/>
<text font-size="6.4" text-anchor="start" x="595" y="193">
0.35
</text>
</g>
<g>
<line marker-end="url(#arr2)" marker-start="url(#arr1)" stroke="#0000aa" stroke-width="1.3" x1="294.6194653080519" x2="590" y1="180" y2="180"/>
<text font-size="6.4" text-anchor="start" x="595" y="183">
0.59
</text>
</g>
<g>
<line marker-end="url(#arr2)" marker-start="url(#arr1)" stroke="#0000aa" stroke-width="1.3" x1="344.5958296128998" x2="382.5442512737014" y1="170" y2="170"/>
<line marker-end="url(#arr2)" marker-start="url(#arr1)" stroke="#0000aa" stroke-width="1.3" x1="473.6861179683807" x2="589.632333630968" y1="170" y2="170"/>
<line marker-end="url(#arr2)" marker-start="url(#arr1)" stroke="#0000aa" stroke-width="1.3" x1="589.6454645727192" x2="590" y1="170" y2="170"/>
<text font-size="6.4" text-anchor="start" x="595" y="173">
0.31
</text>
</g>
<g>
<line marker-end="url(#arr2)" marker-start="url(#arr1)" stroke="#0000aa" stroke-width="1.3" x1="90" x2="428.12175009191657" y1="160" y2="160"/>
<line marker-end="url(#arr2)" marker-start="url(#arr1)" stroke="#0000aa" stroke-width="1.3" x1="428.17427385892114" x2="428.2136666841746" y1="160" y2="160"/>
<line marker-end="url(#arr2)" marker-start="url(#arr1)" stroke="#0000aa" stroke-width="1.3" x1="428.31871421818374" x2="590" y1="160" y2="160"/>
<text font-size="6.4" text-anchor="start" x="595" y="163">
1.00
</text>
</g>
<g>
<line marker-end="url(#arr2)" marker-start="url(#arr1)" stroke="#0000aa" stroke-width="1.3" x1="542.2165029675928" x2="590" y1="150" y2="150"/>
<text font-size="6.4" text-anchor="start" x="595" y="153">
0.10
</text>
</g>
<g>
<line marker-end="url(#arr2)" marker-start="url(#arr1)" stroke="#0000aa" stroke-width="1.3" x1="257.8528284048532" x2="397.06707285046485" y1="140" y2="140"/>
<line marker-end="url(#arr2)" marker-start="url(#arr1)" stroke="#0000aa" stroke-width="1.3" x1="401.05887914281215" x2="401.74168811387153" y1="140" y2="140"/>
<line marker-end="url(#arr2)" marker-start="url(#arr1)" stroke="#0000aa" stroke-width="1.3" x1="430.5115814906245" x2="430.9449025684122" y1="140" y2="140"/>
<line marker-end="url(#arr2)" marker-start="url(#arr1)" stroke="#0000aa" stroke-width="1.3" x1="431.1549976364305" x2="431.20752140343507" y1="140" y2="140"/>
<line marker-end="url(#arr2)" marker-start="url(#arr1)" stroke="#0000aa" stroke-width="1.3" x1="431.27317611219075" x2="431.4307474132045" y1="140" y2="140"/>
<line marker-end="url(#arr2)" marker-start="url(#arr1)" stroke="#0000aa" stroke-width="1.3" x1="431.48327118020904" x2="431.54892588896473" y1="140" y2="140"/>
<line marker-end="url(#arr2)" marker-start="url(#arr1)" stroke="#0000aa" stroke-width="1.3" x1="431.6145805977205" x2="431.6539734229739" y1="140" y2="140"/>
<line marker-end="url(#arr2)" marker-start="url(#arr1)" stroke="#0000aa" stroke-width="1.3" x1="431.66710436472505" x2="434.9104469772572" y1="140" y2="140"/>
<line marker-end="url(#arr2)" marker-start="url(#arr1)" stroke="#0000aa" stroke-width="1.3" x1="434.9367088607595" x2="435.3175061715426" y1="140" y2="140"/>
<line marker-end="url(#arr2)" marker-start="url(#arr1)" stroke="#0000aa" stroke-width="1.3" x1="454.50181206996166" x2="590" y1="140" y2="140"/>
<text font-size="6.4" text-anchor="start" x="595" y="143">
0.56
</text>
</g>
<g>
<line marker-end="url(#arr2)" marker-start="url(#arr1)" stroke="#0000aa" stroke-width="1.3" x1="109.18430589841904" x2="157.1253742318399" y1="130" y2="130"/>
<line marker-end="url(#arr2)" marker-start="url(#arr1)" stroke="#0000aa" stroke-width="1.3" x1="176.3228110720101" x2="590" y1="130" y2="130"/>
<text font-size="6.4" text-anchor="start" x="595" y="133">
0.92
</text>
</g>
<g>
<line marker-end="url(#arr2)" marker-start="url(#arr1)" stroke="#0000aa" stroke-width="1.3" x1="454.50181206996166" x2="590" y1="120" y2="120"/>
<text font-size="6.4" text-anchor="start" x="595" y="123">
0.27
</text>
</g>
<g>
<line marker-end="url(#arr2)" marker-start="url(#arr1)" stroke="#0000aa" stroke-width="1.3" x1="540.8246231419718" x2="552.4192447082305" y1="110" y2="110"/>
<line marker-end="url(#arr2)" marker-start="url(#arr1)" stroke="#0000aa" stroke-width="1.3" x1="552.4323756499816" x2="590" y1="110" y2="110"/>
<text font-size="6.4" text-anchor="start" x="595" y="113">
0.10
</text>
</g>
<g>
<line marker-end="url(#arr2)" marker-start="url(#arr1)" stroke="#0000aa" stroke-width="1.3" x1="573.7964178790903" x2="590" y1="100" y2="100"/>
<text font-size="6.4" text-anchor="start" x="595" y="103">
0.03
</text>
</g>
<g>
<line marker-end="url(#arr2)" marker-start="url(#arr1)" stroke="#0000aa" stroke-width="1.3" x1="200.29991070959608" x2="590" y1="90" y2="90"/>
<text font-size="6.4" text-anchor="start" x="595" y="93">
0.78
</text>
</g>
<g>
<line marker-end="url(#arr2)" marker-start="url(#arr1)" stroke="#0000aa" stroke-width="1.3" x1="92.38983139870791" x2="590" y1="80" y2="80"/>
<text font-size="6.4" text-anchor="start" x="595" y="83">
1.00
</text>
</g>
<g>
<line marker-end="url(#arr2)" marker-start="url(#arr1)" stroke="#0000aa" stroke-width="1.3" x1="113.97709963758601" x2="147.53978675350595" y1="70" y2="70"/>
<line marker-end="url(#arr2)" marker-start="url(#arr1)" stroke="#0000aa" stroke-width="1.3" x1="181.11560481117706" x2="590" y1="70" y2="70"/>
<text font-size="6.4" text-anchor="start" x="595" y="73">
0.88
</text>
</g>
<g>
<line marker-end="url(#arr2)" marker-start="url(#arr1)" stroke="#0000aa" stroke-width="1.3" x1="118.76989337675298" x2="161.91816797100688" y1="60" y2="60"/>
<line marker-end="url(#arr2)" marker-start="url(#arr1)" stroke="#0000aa" stroke-width="1.3" x1="176.3228110720101" x2="238.65539156468301" y1="60" y2="60"/>
<line marker-end="url(#arr2)" marker-start="url(#arr1)" stroke="#0000aa" stroke-width="1.3" x1="516.8475235043857" x2="590" y1="60" y2="60"/>
<text font-size="6.4" text-anchor="start" x="595" y="63">
0.36
</text>
</g>
<g>
<line marker-end="url(#arr2)" marker-start="url(#arr1)" stroke="#0000aa" stroke-width="1.3" x1="573.1267398497821" x2="590" y1="50" y2="50"/>
<text font-size="6.4" text-anchor="start" x="595" y="53">
0.03
</text>
</g>
</g>
<g>
<line stroke="#000000" stroke-width="0.5" x1="91.20807836751845" x2="91.20807836751845" y1="33.5" y2="36.5"/>
<line stroke="#000000" stroke-width="0.5" x1="96.00099797778186" x2="96.00099797778186" y1="33.5" y2="36.5"/>
<line stroke="#000000" stroke-width="0.5" x1="100.79391758804528" x2="100.79391758804528" y1="33.5" y2="36.5"/>
<line stroke="#000000" stroke-width="0.5" x1="105.58683719830869" x2="105.58683719830869" y1="33.5" y2="36.5"/>
<line stroke="#000000" stroke-width="1" x1="110.39288809517556" x2="110.39288809517556" y1="32" y2="38"/>
<line stroke="#000000" stroke-width="0.5" x1="115.18580770543898" x2="115.18580770543898" y1="33.5" y2="36.5"/>
<line stroke="#000000" stroke-width="0.5" x1="119.9787273157024" x2="119.9787273157024" y1="33.5" y2="36.5"/>
<line stroke="#000000" stroke-width="0.5" x1="124.7716469259658" x2="124.7716469259658" y1="33.5" y2="36.5"/>
<line stroke="#000000" stroke-width="0.5" x1="129.57769782283268" x2="129.57769782283268" y1="33.5" y2="36.5"/>
<line stroke="#000000" stroke-width="1" x1="134.3706174330961" x2="134.3706174330961" y1="32" y2="38"/>
<line stroke="#000000" stroke-width="0.5" x1="139.1635370433595" x2="139.1635370433595" y1="33.5" y2="36.5"/>
<line stroke="#000000" stroke-width="0.5" x1="143.95645665362292" x2="143.95645665362292" y1="33.5" y2="36.5"/>
<line stroke="#000000" stroke-width="0.5" x1="148.7625075504898" x2="148.7625075504898" y1="33.5" y2="36.5"/>
<line stroke="#000000" stroke-width="0.5" x1="153.5554271607532" x2="153.5554271607532" y1="33.5" y2="36.5"/>
<line stroke="#000000" stroke-width="1" x1="158.34834677101662" x2="158.34834677101662" y1="32" y2="38"/>
<line stroke="#000000" stroke-width="0.5" x1="163.14126638128005" x2="163.14126638128005" y1="33.5" y2="36.5"/>
<line stroke="#000000" stroke-width="0.5" x1="167.9473172781469" x2="167.9473172781469" y1="33.5" y2="36.5"/>
<line stroke="#000000" stroke-width="0.5" x1="172.74023688841032" x2="172.74023688841032" y1="33.5" y2="36.5"/>
<line stroke="#000000" stroke-width="0.5" x1="177.53315649867375" x2="177.53315649867375" y1="33.5" y2="36.5"/>
<line stroke="#000000" stroke-width="1" x1="182.32607610893717" x2="182.32607610893717" y1="32" y2="38"/>
<line stroke="#000000" stroke-width="0.5" x1="187.13212700580402" x2="187.13212700580402" y1="33.5" y2="36.5"/>
<line stroke="#000000" stroke-width="0.5" x1="191.92504661606745" x2="191.92504661606745" y1="33.5" y2="36.5"/>
<line stroke="#000000" stroke-width="0.5" x1="196.71796622633087" x2="196.71796622633087" y1="33.5" y2="36.5"/>
<line stroke="#000000" stroke-width="0.5" x1="201.51088583659427" x2="201.51088583659427" y1="33.5" y2="36.5"/>
<line stroke="#000000" stroke-width="1" x1="206.31693673346115" x2="206.31693673346115" y1="32" y2="38"/>
<line stroke="#000000" stroke-width="0.5" x1="211.10985634372457" x2="211.10985634372457" y1="33.5" y2="36.5"/>
<line stroke="#000000" stroke-width="0.5" x1="215.90277595398797" x2="215.90277595398797" y1="33.5" y2="36.5"/>
<line stroke="#000000" stroke-width="0.5" x1="220.6956955642514" x2="220.6956955642514" y1="33.5" y2="36.5"/>
<line stroke="#000000" stroke-width="0.5" x1="225.50174646111827" x2="225.50174646111827" y1="33.5" y2="36.5"/>
<line stroke="#000000" stroke-width="1" x1="230.29466607138167" x2="230.29466607138167" y1="32" y2="38"/>
<line stroke="#000000" stroke-width="0.5" x1="235.0875856816451" x2="235.0875856816451" y1="33.5" y2="36.5"/>
<line stroke="#000000" stroke-width="0.5" x1="239.8805052919085" x2="239.8805052919085" y1="33.5" y2="36.5"/>
<line stroke="#000000" stroke-width="0.5" x1="244.6865561887754" x2="244.6865561887754" y1="33.5" y2="36.5"/>
<line stroke="#000000" stroke-width="0.5" x1="249.4794757990388" x2="249.4794757990388" y1="33.5" y2="36.5"/>
<line stroke="#000000" stroke-width="1" x1="254.2723954093022" x2="254.2723954093022" y1="32" y2="38"/>
<line stroke="#000000" stroke-width="0.5" x1="259.0653150195656" x2="259.0653150195656" y1="33.5" y2="36.5"/>
<line stroke="#000000" stroke-width="0.5" x1="263.8713659164325" x2="263.8713659164325" y1="33.5" y2="36.5"/>
<line stroke="#000000" stroke-width="0.5" x1="268.66428552669595" x2="268.66428552669595" y1="33.5" y2="36.5"/>
<line stroke="#000000" stroke-width="0.5" x1="273.4572051369593" x2="273.4572051369593" y1="33.5" y2="36.5"/>
<line stroke="#000000" stroke-width="1" x1="278.2501247472227" x2="278.2501247472227" y1="32" y2="38"/>
<line stroke="#000000" stroke-width="0.5" x1="283.05617564408965" x2="283.05617564408965" y1="33.5" y2="36.5"/>
<line stroke="#000000" stroke-width="0.5" x1="287.849095254353" x2="287.849095254353" y1="33.5" y2="36.5"/>
<line stroke="#000000" stroke-width="0.5" x1="292.64201486461644" x2="292.64201486461644" y1="33.5" y2="36.5"/>
<line stroke="#000000" stroke-width="0.5" x1="297.4349344748798" x2="297.4349344748798" y1="33.5" y2="36.5"/>
<line stroke="#000000" stroke-width="1" x1="302.2409853717468" x2="302.2409853717468" y1="32" y2="38"/>
<line stroke="#000000" stroke-width="0.5" x1="307.03390498201014" x2="307.03390498201014" y1="33.5" y2="36.5"/>
<line stroke="#000000" stroke-width="0.5" x1="311.8268245922735" x2="311.8268245922735" y1="33.5" y2="36.5"/>
<line stroke="#000000" stroke-width="0.5" x1="316.61974420253694" x2="316.61974420253694" y1="33.5" y2="36.5"/>
<line stroke="#000000" stroke-width="0.5" x1="321.42579509940384" x2="321.42579509940384" y1="33.5" y2="36.5"/>
<line stroke="#000000" stroke-width="1" x1="326.21871470966727" x2="326.21871470966727" y1="32" y2="38"/>
<line stroke="#000000" stroke-width="0.5" x1="331.01163431993064" x2="331.01163431993064" y1="33.5" y2="36.5"/>
<line stroke="#000000" stroke-width="0.5" x1="335.80455393019406" x2="335.80455393019406" y1="33.5" y2="36.5"/>
<line stroke="#000000" stroke-width="0.5" x1="340.6106048270609" x2="340.6106048270609" y1="33.5" y2="36.5"/>
<line stroke="#000000" stroke-width="0.5" x1="345.4035244373244" x2="345.4035244373244" y1="33.5" y2="36.5"/>
<line stroke="#000000" stroke-width="1" x1="350.1964440475878" x2="350.1964440475878" y1="32" y2="38"/>
<line stroke="#000000" stroke-width="0.5" x1="354.9893636578512" x2="354.9893636578512" y1="33.5" y2="36.5"/>
<line stroke="#000000" stroke-width="0.5" x1="359.79541455471804" x2="359.79541455471804" y1="33.5" y2="36.5"/>
<line stroke="#000000" stroke-width="0.5" x1="364.58833416498146" x2="364.58833416498146" y1="33.5" y2="36.5"/>
<line stroke="#000000" stroke-width="0.5" x1="369.38125377524494" x2="369.38125377524494" y1="33.5" y2="36.5"/>
<line stroke="#000000" stroke-width="1" x1="374.1741733855083" x2="374.1741733855083" y1="32" y2="38"/>
<line stroke="#000000" stroke-width="0.5" x1="378.98022428237516" x2="378.98022428237516" y1="33.5" y2="36.5"/>
<line stroke="#000000" stroke-width="0.5" x1="383.7731438926386" x2="383.7731438926386" y1="33.5" y2="36.5"/>
<line stroke="#000000" stroke-width="0.5" x1="388.566063502902" x2="388.566063502902" y1="33.5" y2="36.5"/>
<line stroke="#000000" stroke-width="0.5" x1="393.35898311316544" x2="393.35898311316544" y1="33.5" y2="36.5"/>
<line stroke="#000000" stroke-width="1" x1="398.1650340100323" x2="398.1650340100323" y1="32" y2="38"/>
<line stroke="#000000" stroke-width="0.5" x1="402.9579536202957" x2="402.9579536202957" y1="33.5" y2="36.5"/>
<line stroke="#000000" stroke-width="0.5" x1="407.75087323055914" x2="407.75087323055914" y1="33.5" y2="36.5"/>
<line stroke="#000000" stroke-width="0.5" x1="412.5437928408225" x2="412.5437928408225" y1="33.5" y2="36.5"/>
<line stroke="#000000" stroke-width="0.5" x1="417.3498437376894" x2="417.3498437376894" y1="33.5" y2="36.5"/>
<line stroke="#000000" stroke-width="1" x1="422.14276334795284" x2="422.14276334795284" y1="32" y2="38"/>
<line stroke="#000000" stroke-width="0.5" x1="426.93568295821626" x2="426.93568295821626" y1="33.5" y2="36.5"/>
<line stroke="#000000" stroke-width="0.5" x1="431.72860256847963" x2="431.72860256847963" y1="33.5" y2="36.5"/>
<line stroke="#000000" stroke-width="0.5" x1="436.53465346534654" x2="436.53465346534654" y1="33.5" y2="36.5"/>
<line stroke="#000000" stroke-width="0.5" x1="441.32757307560996" x2="441.32757307560996" y1="33.5" y2="36.5"/>
<line stroke="#000000" stroke-width="1" x1="446.1204926858734" x2="446.1204926858734" y1="32" y2="38"/>
<line stroke="#000000" stroke-width="0.5" x1="450.91341229613676" x2="450.91341229613676" y1="33.5" y2="36.5"/>
<line stroke="#000000" stroke-width="0.5" x1="455.71946319300366" x2="455.71946319300366" y1="33.5" y2="36.5"/>
<line stroke="#000000" stroke-width="0.5" x1="460.51238280326703" x2="460.51238280326703" y1="33.5" y2="36.5"/>
<line stroke="#000000" stroke-width="0.5" x1="465.3053024135305" x2="465.3053024135305" y1="33.5" y2="36.5"/>
<line stroke="#000000" stroke-width="1" x1="470.0982220237939" x2="470.0982220237939" y1="32" y2="38"/>
<line stroke="#000000" stroke-width="0.5" x1="474.9042729206608" x2="474.9042729206608" y1="33.5" y2="36.5"/>
<line stroke="#000000" stroke-width="0.5" x1="479.69719253092416" x2="479.69719253092416" y1="33.5" y2="36.5"/>
<line stroke="#000000" stroke-width="0.5" x1="484.49011214118764" x2="484.49011214118764" y1="33.5" y2="36.5"/>
<line stroke="#000000" stroke-width="0.5" x1="489.283031751451" x2="489.283031751451" y1="33.5" y2="36.5"/>
<line stroke="#000000" stroke-width="1" x1="494.0890826483179" x2="494.0890826483179" y1="32" y2="38"/>
<line stroke="#000000" stroke-width="0.5" x1="498.8820022585813" x2="498.8820022585813" y1="33.5" y2="36.5"/>
<line stroke="#000000" stroke-width="0.5" x1="503.6749218688447" x2="503.6749218688447" y1="33.5" y2="36.5"/>
<line stroke="#000000" stroke-width="0.5" x1="508.46784147910813" x2="508.46784147910813" y1="33.5" y2="36.5"/>
<line stroke="#000000" stroke-width="0.5" x1="513.273892375975" x2="513.273892375975" y1="33.5" y2="36.5"/>
<line stroke="#000000" stroke-width="1" x1="518.0668119862385" x2="518.0668119862385" y1="32" y2="38"/>
<line stroke="#000000" stroke-width="0.5" x1="522.8597315965019" x2="522.8597315965019" y1="33.5" y2="36.5"/>
<line stroke="#000000" stroke-width="0.5" x1="527.6526512067652" x2="527.6526512067652" y1="33.5" y2="36.5"/>
<line stroke="#000000" stroke-width="0.5" x1="532.4587021036322" x2="532.4587021036322" y1="33.5" y2="36.5"/>
<line stroke="#000000" stroke-width="0.5" x1="537.2516217138955" x2="537.2516217138955" y1="33.5" y2="36.5"/>
<line stroke="#000000" stroke-width="1" x1="542.0445413241589" x2="542.0445413241589" y1="32" y2="38"/>
<line stroke="#000000" stroke-width="0.5" x1="546.8374609344223" x2="546.8374609344223" y1="33.5" y2="36.5"/>
<line stroke="#000000" stroke-width="0.5" x1="551.6435118312893" x2="551.6435118312893" y1="33.5" y2="36.5"/>
<line stroke="#000000" stroke-width="0.5" x1="556.4364314415527" x2="556.4364314415527" y1="33.5" y2="36.5"/>
<line stroke="#000000" stroke-width="0.5" x1="561.2293510518161" x2="561.2293510518161" y1="33.5" y2="36.5"/>
<line stroke="#000000" stroke-width="1" x1="566.0222706620794" x2="566.0222706620794" y1="32" y2="38"/>
<line stroke="#000000" stroke-width="0.5" x1="570.8283215589463" x2="570.8283215589463" y1="33.5" y2="36.5"/>
<line stroke="#000000" stroke-width="0.5" x1="575.6212411692097" x2="575.6212411692097" y1="33.5" y2="36.5"/>
<line stroke="#000000" stroke-width="0.5" x1="580.4141607794731" x2="580.4141607794731" y1="33.5" y2="36.5"/>
<line stroke="#000000" stroke-width="0.5" x1="585.2070803897366" x2="585.2070803897366" y1="33.5" y2="36.5"/>
<polyline fill="none" marker-mid="url(#mark1)" points="90,35 91.20807836751845,35 96.00099797778186,35 100.79391758804528,35 105.58683719830869,35 110.39288809517556,35 115.18580770543898,35 119.9787273157024,35 124.7716469259658,35 129.57769782283268,35 134.3706174330961,35 139.1635370433595,35 143.95645665362292,35 148.7625075504898,35 153.5554271607532,35 158.34834677101662,35 163.14126638128005,35 167.9473172781469,35 172.74023688841032,35 177.53315649867375,35 182.32607610893717,35 187.13212700580402,35 191.92504661606745,35 196.71796622633087,35 201.51088583659427,35 206.31693673346115,35 211.10985634372457,35 215.90277595398797,35 220.6956955642514,35 225.50174646111827,35 230.29466607138167,35 235.0875856816451,35 239.8805052919085,35 244.6865561887754,35 249.4794757990388,35 254.2723954093022,35 259.0653150195656,35 263.8713659164325,35 268.66428552669595,35 273.4572051369593,35 278.2501247472227,35 283.05617564408965,35 287.849095254353,35 292.64201486461644,35 297.4349344748798,35 302.2409853717468,35 307.03390498201014,35 311.8268245922735,35 316.61974420253694,35 321.42579509940384,35 326.21871470966727,35 331.01163431993064,35 335.80455393019406,35 340.6106048270609,35 345.4035244373244,35 350.1964440475878,35 354.9893636578512,35 359.79541455471804,35 364.58833416498146,35 369.38125377524494,35 374.1741733855083,35 378.98022428237516,35 383.7731438926386,35 388.566063502902,35 393.35898311316544,35 398.1650340100323,35 402.9579536202957,35 407.75087323055914,35 412.5437928408225,35 417.3498437376894,35 422.14276334795284,35 426.93568295821626,35 431.72860256847963,35 436.53465346534654,35 441.32757307560996,35 446.1204926858734,35 450.91341229613676,35 455.71946319300366,35 460.51238280326703,35 465.3053024135305,35 470.0982220237939,35 474.9042729206608,35 479.69719253092416,35 484.49011214118764,35 489.283031751451,35 494.0890826483179,35 498.8820022585813,35 503.6749218688447,35 508.46784147910813,35 513.273892375975,35 518.0668119862385,35 522.8597315965019,35 527.6526512067652,35 532.4587021036322,35 537.2516217138955,35 542.0445413241589,35 546.8374609344223,35 551.6435118312893,35 556.4364314415527,35 561.2293510518161,35 566.0222706620794,35 570.8283215589463,35 575.6212411692097,35 580.4141607794731,35 585.2070803897366,35 590,35" stroke="#000000" stroke-width="0.5"/>
<g>
<text font-size="6.4" text-anchor="start" transform="translate(110.39288809517556, 30) rotate(-30)" x="0" y="0">
1925
</text>
<text font-size="6.4" text-anchor="start" transform="translate(134.3706174330961, 30) rotate(-30)" x="0" y="0">
1930
</text>
<text font-size="6.4" text-anchor="start" transform="translate(158.34834677101662, 30) rotate(-30)" x="0" y="0">
1935
</text>
<text font-size="6.4" text-anchor="start" transform="translate(182.32607610893717, 30) rotate(-30)" x="0" y="0">
1940
</text>
<text font-size="6.4" text-anchor="start" transform="translate(206.31693673346115, 30) rotate(-30)" x="0" y="0">
1945
</text>
<text font-size="6.4" text-anchor="start" transform="translate(230.29466607138167, 30) rotate(-30)" x="0" y="0">
1950
</text>
<text font-size="6.4" text-anchor="start" transform="translate(254.2723954093022, 30) rotate(-30)" x="0" y="0">
1955
</text>
<text font-size="6.4" text-anchor="start" transform="translate(278.2501247472227, 30) rotate(-30)" x="0" y="0">
1960
</text>
<text font-size="6.4" text-anchor="start" transform="translate(302.2409853717468, 30) rotate(-30)" x="0" y="0">
1965
</text>
<text font-size="6.4" text-anchor="start" transform="translate(326.21871470966727, 30) rotate(-30)" x="0" y="0">
1970
</text>
<text font-size="6.4" text-anchor="start" transform="translate(350.1964440475878, 30) rotate(-30)" x="0" y="0">
1975
</text>
<text font-size="6.4" text-anchor="start" transform="translate(374.1741733855083, 30) rotate(-30)" x="0" y="0">
1980
</text>
<text font-size="6.4" text-anchor="start" transform="translate(398.1650340100323, 30) rotate(-30)" x="0" y="0">
1985
</text>
<text font-size="6.4" text-anchor="start" transform="translate(422.14276334795284, 30) rotate(-30)" x="0" y="0">
1990
</text>
<text font-size="6.4" text-anchor="start" transform="translate(446.1204926858734, 30) rotate(-30)" x="0" y="0">
1995
</text>
<text font-size="6.4" text-anchor="start" transform="translate(470.0982220237939, 30) rotate(-30)" x="0" y="0">
2000
</text>
<text font-size="6.4" text-anchor="start" transform="translate(494.0890826483179, 30) rotate(-30)" x="0" y="0">
2005
</text>
<text font-size="6.4" text-anchor="start" transform="translate(518.0668119862385, 30) rotate(-30)" x="0" y="0">
2010
</text>
<text font-size="6.4" text-anchor="start" transform="translate(542.0445413241589, 30) rotate(-30)" x="0" y="0">
2015
</text>
<text font-size="6.4" text-anchor="start" transform="translate(566.0222706620794, 30) rotate(-30)" x="0" y="0">
2020
</text>
</g>
</g>
</svg>