<svg height="240" viewBox="0 0 139 195" width="500" xmlns="http://www.w3.org/2000/svg">
<g>
<line stroke="#000000" stroke-width="1" x1="10" x2="10" y1="160" y2="185"/>
<line stroke="#000000" stroke-width="1" x1="35" x2="10" y1="135" y2="160"/>
<line stroke="#000000" stroke-width="1" x1="35" x2="35" y1="110" y2="135"/>
<line stroke="#000000" stroke-width="1" x1="10" x2="10" y1="85" y2="160"/>
<line stroke="#000000" stroke-width="1" x1="10" x2="10" y1="60" y2="85"/>
<line stroke="#000000" stroke-width="1" x1="10" x2="10" y1="35" y2="60"/>
</g>
<g>
<rect fill="#000000" height="5" width="5" x="7.5" y="182.5"/>
<text font-size="large" text-anchor="start" x="75" y="185">
g3 = 1
</text>
<rect fill="#000000" height="5" width="5" x="7.5" y="157.5"/>
<text font-size="large" text-anchor="start" x="75" y="160">
d4 = 1
</text>
<rect fill="#000000" height="5" width="5" x="32.5" y="132.5"/>
<text font-size="large" text-anchor="start" x="75" y="135">
g2 = 2
</text>
<rect fill="#000000" height="5" width="5" x="32.5" y="107.5"/>
<text font-size="large" text-anchor="start" x="75" y="110">
d3 = 2
</text>
<rect fill="#000000" height="5" width="5" x="7.5" y="82.5"/>
<text font-size="large" text-anchor="start" x="75" y="85">
g1 = 2
</text>
<rect fill="#000000" height="5" width="5" x="7.5" y="57.5"/>
<text font-size="large" text-anchor="start" x="75" y="60">
d2 = 2
</text>
<rect fill="#000000" height="5" width="5" x="7.5" y="32.5"/>
<text font-size="large" text-anchor="start" x="75" y="35">
d1 = 2
</text>
</g>
</svg>